# xmcd
#
# Track frame offsets:
#	150
#	14888
#	25037
#	35429
#	47171
#	57752
#	67955
#	79724
#	89630
#	103396
#	114895
#	128688
#	139269
#	151415
#	163453
#	173710
#	186450
#	200486
#	212821
#	223321
#
# Disc length: 3142 seconds
#
# Revision: 0
# Processed by: cddbd v1.5.1PL0 Copyright (c) Steve Scherf et al.
# Submitted via: EasyCDDAExtractor 7.5.2.1
#
DISCID=2d0c4414
DTITLE=O Melhor Do Forro - Volume 1
DYEAR=1980
DGENRE=Country
TTITLE0=Galo Branco
TTITLE1=Quebra Pedra
TTITLE2=Serra Pelada
TTITLE3=Passo Do Galo
TTITLE4=Parada Dura
TTITLE5=Agora Eu Danco
TTITLE6=Serra Dourada
TTITLE7=Marcha Da Gargalhada
TTITLE8=Eu E Ela
TTITLE9=Baile Na Tuia
TTITLE10=Pepita De Ouro
TTITLE11=Arrasta-Pe Na Tuia
TTITLE12=Dois Pra La, Dois Pra Ca
TTITLE13=Ninho De Cobra
TTITLE14=Cheguei De Novo
TTITLE15=Festival  Rampazo
TTITLE16=Cheiro De Mulher Bonita
TTITLE17=Meu Nome E Eneias
TTITLE18=Forro Em Portugal
TTITLE19=nem ouro, nem prata
EXTD=
EXTT0=
EXTT1=
EXTT2=
EXTT3=
EXTT4=
EXTT5=
EXTT6=
EXTT7=
EXTT8=
EXTT9=
EXTT10=
EXTT11=
EXTT12=
EXTT13=
EXTT14=
EXTT15=
EXTT16=
EXTT17=
EXTT18=
EXTT19=
PLAYORDER=
